<?xml version="1.0" encoding="utf-8"?>
<!-- Generator: Adobe Illustrator 16.0.4, SVG Export Plug-In . SVG Version: 6.00 Build 0)  -->
<!DOCTYPE svg PUBLIC "-//W3C//DTD SVG 1.1//EN" "http://www.w3.org/Graphics/SVG/1.1/DTD/svg11.dtd">
<svg version="1.1" id="Layer_1" xmlns="http://www.w3.org/2000/svg" xmlns:xlink="http://www.w3.org/1999/xlink" x="0px" y="0px"
	 width="100px" height="100px" viewBox="0 0 100 100" enable-background="new 0 0 100 100" xml:space="preserve">
<circle cx="77.251" cy="26.117" r="2.57"/>
<circle cx="24.355" cy="26.117" r="2.57"/>
<path d="M86.138,51.963l-3.901-6.015c-0.02-0.032-0.045-0.057-0.067-0.087l-0.991-6.194c0.004-0.163-0.012-0.334-0.05-0.513
	l-1.31-5.94c0,0-0.568-2.097-1.023-2.652c-0.454-0.556-0.905-0.65-1.229-0.742c-0.201-0.072-0.4-0.1-0.589-0.093
	c-0.211-0.008-0.425,0.006-0.638,0.054c-0.367,0.081-0.695,0.238-0.979,0.453c-0.245,0.121-0.467,0.334-0.605,0.622L74.7,30.97
	c-0.091,0.15-0.169,0.308-0.231,0.474l-2.357,4.852l-3.706,1.639c-0.108,0.048-0.199,0.122-0.278,0.204
	c-2.713-1.123-9.219-1.914-16.818-1.914c-7.596,0-14.101,0.791-16.816,1.914c-0.079-0.082-0.169-0.155-0.278-0.204l-3.705-1.639
	l-2.358-4.852c-0.062-0.167-0.139-0.324-0.229-0.474l-0.057-0.115c-0.14-0.288-0.36-0.502-0.606-0.622
	c-0.283-0.215-0.612-0.373-0.977-0.453c-0.215-0.048-0.428-0.062-0.64-0.054c-0.188-0.006-0.388,0.021-0.589,0.093
	c-0.324,0.092-0.775,0.186-1.229,0.742c-0.454,0.556-1.023,2.652-1.023,2.652l-1.308,5.94c-0.04,0.179-0.054,0.35-0.05,0.513
	l-0.993,6.194c-0.021,0.03-0.046,0.055-0.066,0.087l-3.901,6.015c-0.489,0.752-0.394,1.68,0.21,2.071s1.488,0.101,1.977-0.651
	l3.903-6.016c0.122-0.19,0.209-0.392,0.259-0.592c0.046-0.106,0.084-0.217,0.103-0.335l0.736-4.599
	c0.09,0.025,0.18,0.046,0.271,0.067c0.307,0.069,0.576,0.174,0.815,0.283l4.073,4.862l1.258,6.003
	c0.161,0.76,0.861,1.258,1.566,1.112c0.704-0.149,1.146-0.886,0.985-1.649l-1.279-6.095c-0.05-0.241-0.158-0.45-0.301-0.626
	c-0.047-0.084-0.104-0.165-0.168-0.244l-4.247-5.07l1.16-5.256l1.009,2.076c0.03,0.062,0.066,0.119,0.104,0.176
	c0.068,0.285,0.249,0.532,0.525,0.654l3.919,1.735c0.041,0.018,0.083,0.027,0.124,0.039c1.648,1.416,9,2.483,17.824,2.483
	c8.823,0,16.175-1.067,17.825-2.482c0.041-0.012,0.084-0.021,0.125-0.04l3.92-1.735c0.275-0.122,0.457-0.369,0.525-0.654
	c0.037-0.057,0.072-0.114,0.104-0.176l1.008-2.076l1.159,5.256l-4.247,5.07c-0.064,0.079-0.119,0.16-0.168,0.244
	c-0.141,0.175-0.25,0.386-0.301,0.626L69.98,52.52c-0.16,0.764,0.283,1.5,0.986,1.649c0.703,0.146,1.405-0.353,1.566-1.112
	l1.258-6.003l4.071-4.862c0.239-0.108,0.508-0.213,0.815-0.283c0.092-0.02,0.182-0.042,0.271-0.067l0.736,4.599
	c0.018,0.118,0.058,0.23,0.104,0.335c0.049,0.2,0.137,0.401,0.26,0.592l3.902,6.016c0.487,0.752,1.373,1.043,1.976,0.651
	C86.53,53.643,86.625,52.715,86.138,51.963z"/>
<path d="M60.372,23.941c-0.816-0.239-1.682,0.233-1.92,1.049l-1.74,5.938c-0.239,0.816,0.233,1.68,1.05,1.919
	c0.817,0.24,1.681-0.233,1.919-1.049l1.741-5.939C61.66,25.044,61.189,24.18,60.372,23.941z"/>
<path d="M46.177,14.662c0.828-0.193,1.347-1.029,1.154-1.857l-1.406-6.027c-0.193-0.828-1.029-1.348-1.857-1.155
	c-0.83,0.194-1.349,1.03-1.156,1.858l1.406,6.027C44.511,14.336,45.348,14.855,46.177,14.662z"/>
<path d="M42.291,20.743c-0.846,0.963-0.751,2.429,0.211,3.275l0.582,0.511l-2.042,2.325c-0.562,0.639-0.498,1.621,0.141,2.182
	c0.64,0.562,1.622,0.498,2.183-0.141l2.042-2.324l1.162,1.021l-2.042,2.325c-0.561,0.639-0.498,1.621,0.141,2.182
	c0.64,0.562,1.622,0.499,2.183-0.141l2.042-2.325l0.581,0.51c0.964,0.847,2.429,0.751,3.274-0.212l5.615-6.393L47.906,14.35
	L42.291,20.743z"/>
<path d="M59.987,15.489l1.977-0.768c0.099-0.039,0.148-0.152,0.109-0.25c-0.036-0.097-0.15-0.148-0.248-0.109l-2.008,0.778
	c-0.387-0.739-0.912-1.422-1.577-2.006c-0.665-0.584-1.409-1.017-2.193-1.305l0.515-2.09c0.025-0.104-0.039-0.208-0.142-0.234
	c-0.104-0.026-0.208,0.039-0.234,0.142l-0.506,2.059c-2.299-0.701-4.871-0.176-6.721,1.512l10.396,9.133
	C60.788,20.296,60.979,17.679,59.987,15.489z M52.624,14.841c-0.466-0.41-0.512-1.118-0.103-1.584
	c0.408-0.465,1.117-0.512,1.583-0.102c0.465,0.408,0.512,1.118,0.103,1.583C53.797,15.203,53.088,15.249,52.624,14.841z
	 M57.272,18.925c-0.465-0.409-0.512-1.118-0.103-1.583c0.408-0.465,1.118-0.511,1.584-0.103c0.466,0.409,0.51,1.118,0.102,1.583
	C58.446,19.288,57.738,19.334,57.272,18.925z"/>
</svg>
